<?xml version="1.0" standalone="no"?>
<!DOCTYPE svg PUBLIC "-//W3C//DTD SVG 20010904//EN"
 "http://www.w3.org/TR/2001/REC-SVG-20010904/DTD/svg10.dtd">
<svg version="1.0" xmlns="http://www.w3.org/2000/svg"
 width="254.000000pt" height="254.000000pt" viewBox="0 0 254.000000 254.000000"
 preserveAspectRatio="xMidYMid meet">
<metadata>
Created by potrace 1.14, written by Peter Selinger 2001-2017
</metadata>
<g transform="translate(0.000000,254.000000) scale(0.100000,-0.100000)"
fill="#000000" stroke="none">
<path d="M45 2050 l-31 -5 2 -765 c1 -421 2 -771 3 -777 1 -10 29 -13 105 -13
91 0 104 2 107 18 2 9 4 256 3 549 0 293 3 530 7 528 3 -3 10 -19 14 -37 4
-18 8 -35 9 -38 2 -6 16 -76 18 -87 1 -5 7 -23 15 -40 7 -18 12 -36 11 -40 0
-5 2 -15 5 -23 4 -8 8 -26 10 -40 2 -14 7 -32 10 -40 3 -8 17 -58 31 -110 62
-236 106 -407 109 -425 2 -11 7 -27 10 -35 4 -8 8 -26 11 -40 2 -14 7 -32 10
-40 3 -8 10 -34 16 -57 l11 -43 123 0 c90 0 125 3 128 13 8 22 3 1535 -5 1543
-4 4 -51 7 -104 7 -79 0 -98 -3 -102 -16 -3 -9 -6 -217 -5 -462 0 -245 -2
-445 -6 -445 -4 0 -7 6 -8 13 0 6 -10 48 -22 92 -26 95 -25 89 -34 140 -4 22
-11 49 -16 60 -17 41 -40 147 -35 156 4 5 2 9 -3 9 -5 0 -14 24 -21 53 -19 87
-21 96 -31 122 -5 14 -7 25 -5 25 2 0 0 11 -5 25 -5 14 -12 36 -14 48 -2 12
-9 42 -16 67 -7 25 -14 56 -17 70 -2 14 -8 29 -12 33 -9 9 -229 15 -276 7z"/>
<path d="M1050 2052 l-106 -3 -1 -109 0 -110 81 0 c44 -1 141 -1 214 -1 77 0
132 -4 132 -10 0 -5 -9 -28 -19 -52 -11 -23 -63 -150 -116 -282 -53 -132 -106
-259 -116 -282 -10 -23 -19 -44 -19 -47 0 -8 -142 -350 -150 -361 -23 -33 -37
-158 -31 -282 l1 -23 360 0 361 0 -3 112 -3 113 -217 0 c-119 0 -219 3 -223 7
-4 3 0 21 8 40 13 29 27 62 32 78 1 3 7 18 13 33 7 16 21 52 33 80 26 64 33
80 58 139 12 26 21 50 21 53 0 4 7 21 14 38 31 67 136 328 136 337 0 6 5 10
10 10 6 0 9 3 8 8 -3 9 20 79 37 112 30 60 75 177 74 195 0 11 0 60 0 109 0
50 -1 91 -2 93 -5 4 -469 8 -587 5z"/>
<path d="M1798 2052 c-14 -3 -16 -78 -16 -725 0 -397 -1 -726 -2 -732 -1 -5
-1 -14 0 -20 1 -5 1 -27 0 -48 l-2 -39 249 4 248 3 66 33 c67 32 139 103 139
136 0 8 4 17 9 20 4 3 14 34 22 68 10 48 13 173 13 523 0 404 -2 469 -17 530
-35 138 -132 225 -268 241 -56 6 -414 11 -441 6z m419 -242 c54 -33 56 -44 57
-303 1 -132 -2 -241 -7 -244 -4 -2 -3 -12 1 -21 5 -9 8 -110 7 -223 -1 -222
-7 -255 -53 -285 -28 -18 -156 -28 -181 -14 -12 6 -15 54 -15 279 -1 174 3
271 9 272 7 0 7 2 0 5 -6 2 -9 103 -8 276 1 150 2 274 2 276 1 1 36 2 79 2 59
0 85 -5 109 -20z"/>
</g>
</svg>
